{
  "asset": {
    "generator": "Khronos glTF Blender I/O v1.8.19",
    "version": "2.0"
  },
  "scene": 0,
  "scenes": [
    {
      "name": "Scene",
      "nodes": [0]
    }
  ],
  "nodes": [
    {
      "mesh": 0,
      "name": "mesh",
      "rotation": [0.7071068286895752, 0, 0, 0.7071067094802856]
    }
  ],
  "materials": [
    {
      "doubleSided": true,
      "name": "main",
      "pbrMetallicRoughness": {
        "baseColorTexture": {
          "index": 0
        },
        "metallicFactor": 0.9892473220825195,
        "roughnessFactor": 0
      }
    }
  ],
  "meshes": [
    {
      "name": "Mesh",
      "primitives": [
        {
          "attributes": {
            "POSITION": 0,
            "NORMAL": 1,
            "TEXCOORD_0": 2
          },
          "indices": 3,
          "material": 0
        }
      ]
    }
  ],
  "textures": [
    {
      "sampler": 0,
      "source": 0
    }
  ],
  "images": [
    {
      "bufferView": 4,
      "mimeType": "image/jpeg",
      "name": "texture"
    }
  ],
  "accessors": [
    {
      "bufferView": 0,
      "componentType": 5126,
      "count": 8072,
      "max": [0.09660875797271729, 0.11274141073226929, -0.11692173779010773],
      "min": [-0.1582237333059311, -0.07550182938575745, -0.386167973279953],
      "type": "VEC3"
    },
    {
      "bufferView": 1,
      "componentType": 5126,
      "count": 8072,
      "type": "VEC3"
    },
    {
      "bufferView": 2,
      "componentType": 5126,
      "count": 8072,
      "type": "VEC2"
    },
    {
      "bufferView": 3,
      "componentType": 5123,
      "count": 43905,
      "type": "SCALAR"
    }
  ],
  "bufferViews": [
    {
      "buffer": 0,
      "byteLength": 96864,
      "byteOffset": 0
    },
    {
      "buffer": 0,
      "byteLength": 96864,
      "byteOffset": 96864
    },
    {
      "buffer": 0,
      "byteLength": 64576,
      "byteOffset": 193728
    },
    {
      "buffer": 0,
      "byteLength": 87810,
      "byteOffset": 258304
    },
    {
      "buffer": 0,
      "byteLength": 548569,
      "byteOffset": 346116
    }
  ],
  "samplers": [
    {
      "magFilter": 9729,
      "minFilter": 9987
    }
  ],
  "buffers": [
    {
      "byteLength": 894688,
      "uri": "data:application/octet-stream;base64,"
    }
  ]
}
